
<svg xmlns="http://www.w3.org/2000/svg" version="1.1" xmlns:xlink="http://www.w3.org/1999/xlink" preserveAspectRatio="none" x="0px" y="0px" width="199px" height="231px" viewBox="0 0 199 231">
<defs/>

<g id="____1_svg">
<g transform="matrix( 0.263702392578125, 0, 0, 0.26385498046875, -25.15,-61.7) ">
<g>
<g>
<path fill="#000000" stroke="none" d="
M 659 319
Q 656.1 311.75 648.15 307.25 640.6 303 632 303 613.95 304.05 606 322 600 337.05 610 350 614 355.05 611 360
L 597 389 585 415
Q 583.95 418.1 580 420 575.95 394.9 571 371
L 561 321
Q 558.95 306.75 556 294 554.95 288 559 283 568 273.25 566.15 259.5 564.25 245.75 553 239 545 233 535 234 525 234 517.4 240.25 509.45 246.75 508 257 503.95 276.05 520 289
L 515 317 496 408
Q 496.95 412.05 492 417
L 449 349
Q 447 345.65 447.35 343.2 447.55 341.9 449.4 338.75 453.55 331.5 452 321 447.95 301 429 296 420.05 293.75 411.25 297.75 402.5 301.7 398 310 390.55 321.15 394.25 333.65 397.9 345.95 410 352
L 405 412 398 485 396 501
Q 380.4 505.45 353.75 520.5 327.35 535.4 316 546
L 300 559
Q 277.35 578.75 260.5 600.65 244.65 621.2 230 649 221.95 667.1 209 681 204 689.05 195 690 184.95 695 174 689 171.05 687 169.25 677.25 167.05 665.05 163 658 151 641.05 130 646 122 648.9 117.9 653.4 114.25 657.3 108 669 100 683.95 96 701 94.3 717.9 97.65 727.9 101.8 740.35 115 748 123.95 753.6 131.75 754.5 141.5 755.65 147 758
L 160 775
Q 161.75 777.5 172.65 788.4 180.65 796.4 183 804
L 201 871
Q 213 926.05 247 971
L 257 984 264 994
Q 271.7 1003.8 286.4 1017.65 299.35 1029.85 311 1039
L 320 1047 332 1054
Q 345 1064.05 359 1072
L 399 1090
Q 422 1101.05 448 1106 460.8 1110 476 1110
L 501 1112 538 1112 565 1110
Q 575.1 1109 588.4 1106.65 605 1103.65 611 1101 618.4 1098.4 632.5 1095.9 644.2 1093.75 660 1087
L 691 1073
Q 756.05 1044 798 986
L 809 969
Q 833.65 928.2 845 882
L 851 855 853 841
Q 853.95 802.1 852.65 785 850.45 756.6 841 729
L 831 699
Q 826 683.1 818 668
L 809 647
Q 820.9 642.1 829 630 833.6 618.5 831.25 606 828.85 593.1 820 585 809.4 575 792 575.5 784 576.15 781.2 576.3 776.6 576.55 776 575
L 776 570
Q 779 556.05 776 541 772.75 523.65 762.85 509.05 752.95 494.4 738 485 726.1 478 715.25 475.75 706.8 474 691 474 674 474.6 662.25 481.75 657.2 485.2 655.3 486.4 652.2 488.3 650 488
L 648 485 641 362
Q 654.7 357.45 660.15 345 665.65 332.3 659 319
M 651 322
Q 656.95 332.95 652 342 647.95 352.05 636 354 625 355.05 618 347 612.65 342.45 612.25 334.4 611.85 326.15 617 321
L 630 316
Q 637.05 315 643 318
L 651 322
M 699 484
Q 713 484 724 490 728.85 490.95 738.9 499 749.7 507.65 747 511
L 698 544 648 579 640 585 636 585
Q 634 585 634 582 622.95 556.05 634 529 643.15 509.15 660.15 497.15 677.65 484.75 699 484
M 667.9 588.5
Q 667.6 583.95 669 583 670.95 581.05 675 582 677.25 583.15 676.75 587.25 676.3 591 677 591 682.95 592.5 687.25 586 691.5 579.6 690 572 688 566 691 563
L 751 522
Q 755 521 757 524 766 541.95 765 561 762.95 588.1 745 605 733.95 616.1 726.9 620.15 718.65 624.85 705 627 689.95 630 675 623 673.2 622.4 671.35 619.6 667.65 614.05 667.4 613.75 660.75 605.4 647 603 644.95 603 643 600 640.95 598.05 644 595
L 656 587
Q 659 587.5 661 589 663 590.5 666 591 668.1 592.05 667.9 588.5
M 770 590
Q 779.05 582.05 790 583 804.95 583 816 590 826.95 604.05 823 620 818 635 802 641
L 790 622
Q 781.95 608.95 770 598
L 770 590
M 759 608
L 762 606
Q 768.6 606 787.4 635 803.6 660.1 809 673
L 824 707 826 717 806 698
Q 779 673.05 745 662 740.85 660.95 740.65 656.4 740.5 653.9 740.1 652.85 739.3 651 737 650
L 717 643
Q 711 641.75 708.65 641.15 704.6 640.05 704 637 704 635 705.5 634.8 706 634.75 710 635.25 719.2 636.4 728 632 739.8 625.65 745 621.9 752.9 616.15 759 608
M 679 641
L 686 642
Q 693.35 645.15 699 647
L 717 653
Q 709.6 655.3 698.5 654.15 684.45 652.65 680 653 677.85 651.55 677.65 647.4 677.4 643.4 679 641
M 670.15 658.65
Q 671.4 672.15 671.85 675.6 673.05 684.05 675 688
L 689 719
Q 695.5 734.1 685.75 749.15 676.6 763.25 660 768 652.3 770.55 642.15 770.4 630.55 770.15 625 766 616.95 760.9 613.75 751.25 610.7 742.05 613 732
L 619 704
Q 622.7 689.9 615.4 676.4 613.8 673.5 608.45 665.35 603.95 658.5 602 654 597 645.05 600 635 609 618 627 613 639.4 610.35 647.65 612.15 658.2 614.4 663 624 667.85 634.25 670.15 658.65
M 683.75 685.4
Q 681.85 679.8 679 662 686.05 660.05 695 661 723.95 662.05 752 673 799 693.05 830 735 836.95 744 839 755 843.25 778.45 844.15 794 844.8 806.3 844 833 842.95 871.05 829 908 808.15 962.1 768.1 1003.95 728.05 1045.85 675 1069
L 651 1080
Q 615.4 1092.85 574.65 1099 533.15 1105.25 496 1103 467 1102.05 440 1094
L 401 1080
Q 349.95 1060.25 309 1024 301 1014.05 294 1003 275.45 969.8 271.75 934.5 267.85 897.35 281 863 291.9 835.1 310 811 316.85 811 322 812
L 351 812
Q 380 809 393 784 401.95 763.1 400 740 397.95 735.05 404 733 492.8 685.1 593 669 598 668 601 671
L 609 685
Q 613 693.05 610 700
L 603 732
Q 600 749.05 609 763 615.1 774.5 629.4 778.15 640.15 780.85 655 779 669.9 775.05 682 769 692 761.05 695 750 705 728 693 705 684.95 688.9 683.75 685.4
M 443 327
Q 441.95 337 434 343 421.95 349 410 342 402 336 402 325 403 312.05 415 307 421 303 429 306 444 311 443 327
M 419 355
Q 430 355 440 350
L 496 441 499 438 523 320 528 298
Q 528 292.05 534 293 536.35 293.3 543.15 292.5 546.4 292.1 547 295
L 576 440
Q 574.95 445.05 579 446
L 619 362
Q 620.95 359 624 361
L 632 363 639 465 640 488 624 484 599 480
Q 590.8 478.35 573.65 476.9 555.35 475.3 549 476 541.4 476.55 530.15 473 515.2 468.3 506 467 483.95 465.05 464 473 452.1 477.15 439.15 485.9 427.7 493.55 421 495
L 406 498
Q 403.95 496 405 490
L 415 401 419 355
M 533 244
Q 540.1 241.85 546.65 245.9 552.55 249.5 555 256 559.95 264.05 555 271 549 284 534 284 525.45 282.45 520.15 275.75 514.55 268.75 516 260 519 247 533 244
M 153 663
Q 157 671.05 159 681 163 688.05 160 693 153.55 695.35 149.4 699.75 144.8 704.6 144 705 141.95 705 141 703
L 135 695
Q 132 692 129 693 124.95 696 126 701
L 140 718
Q 138.95 728.9 142 740
L 142 745
Q 141.25 745.8 137.45 745.4 133.55 744.95 128.9 743.5 116.65 739.65 112 733 107.35 725.55 105.9 720.75 103.65 713.45 105 704 106.95 690.05 114 677 118.95 666.05 129 659 142 651.05 153 663
M 148.75 725.75
Q 148.3 712.35 159 705 164.45 701.5 172.6 700.9 177.35 700.6 187.4 700.9 196.5 700.75 202.75 698.4 211.2 695.2 218 687 229.9 672.4 242 649.9 255.05 625.6 263 615 287.25 581.3 319.9 555.55 352.55 529.8 391 514
L 411 505 414 504
Q 415.9 504 418 506 396.1 534.7 396.5 570.4 396.9 606.45 420 634 438.95 655 466 664
L 484 668
Q 486.65 668.9 493.65 668.65 500.2 668.4 504 670
L 459 694
Q 455.1 697.9 450 701
L 422 714 397 727
Q 391.25 711.15 375 702.65 359.8 694.65 344 697 333.3 698.35 323.7 702.45 317.6 705.1 308.4 710.75 298.75 716.65 294.35 718.65 286.3 722.35 278 723
L 274 727
Q 274.95 731 279 731 288.35 731.8 295.4 729.5 303.1 727 314 719 329.05 708 346 706 359.95 704.05 373 712 385.05 721.8 388.4 728.75 391.75 735.8 391 750 391 784 362 800 353 804.05 344 803 329.05 805 315 802
L 294 794 284 788
Q 279.75 784 277.4 782.25 273.15 779.1 270 781 267.95 784.05 269 787 276.95 797 289 802 292 803.5 298 805.4 301 806.3 301 808
L 281 843
Q 270.4 864.15 267.9 872.5 263 888.5 263 914 263 952 278 985
L 281 997 275 992
Q 254.2 964.9 241.65 943.75 224.8 915.5 218 891
L 197 816
Q 194.05 803.25 190 793 188.05 788.8 183.4 783.7 182.7 782.95 174 774.25 160.6 760.85 155 748 149.05 735.1 148.75 725.75
M 579 489
L 588 490
Q 606.2 491.05 624 497
L 632 499 635 501 635 505
Q 627.3 513.45 622.85 526.05 618.6 538.15 618 552 616.75 581.75 631 602 626.6 603.75 621.8 605.05 616.1 606.6 615.25 606.9 608.95 609.05 601 617 583 636.05 594 659 589.05 663 583 663
L 564 666 527 675
Q 522 677 519.25 677.75 514.35 679.1 510 676 517.2 671.7 536.25 662.75 550.8 655.9 561 648 582.05 630.7 591.75 605.5 601.5 580.2 597 554 592.95 518 566 495
L 561 488
Q 568.85 487.05 579 489
M 500 479
Q 516.9 479 533 486 549.9 494 563 508 572 516.05 578 529 584.75 547.85 586.15 553.75 589.9 569.65 586 580
L 543 565 507 551 479 543 423 522
Q 421.05 518.1 432 507.4 440.9 498.65 447 495 463.85 484.3 472 481.75 480.85 479 500 479
M 433 538
Q 435.95 539.05 435 543
L 435 545
Q 435 545.6 436.9 545.5 438.05 545.45 441.25 545.25 447.8 545.25 449 550 449.95 560 442 560 438.8 560.7 439 562.7 439.25 564.5 442.15 566.5 449.3 571.45 458 570 468.65 568.4 473.4 560.4 475.5 556.75 476.4 556.1 478.35 554.65 482 556
L 582 591
Q 583.95 595.05 582 600 574 622.05 555 636 541.9 647.05 524 654 509.2 658 493 658 462 657.05 440 637 425.45 624.95 417.05 607.95 408.7 590.95 408 572 406 551 414 533 418.95 532 422 534
L 433 538
M 276 766
L 278 772
Q 281.15 772.75 296.85 776.9 306.45 779.4 312.4 780.4 328.15 782.9 349 779 354.05 779 357 775
L 356 769
Q 352.7 767.9 348.5 769.4 342.2 771.6 338 772 308.95 775 282 764 278 764 276 766
M 276 745
Q 276 748.1 278 750 305 754.5 315.5 754.5 332.55 754.5 353 747 357.95 744 356 738 351.95 736.05 348 739 330 747.05 310 745
L 297 745
Q 286 743.5 282.75 743.15 277.85 742.55 276 745
M 666.9 681.65
Q 660.4 662.8 659 651 660 642 651 636
L 638 636
Q 630.75 638.9 628.9 646.65 627.1 653.95 631 661 641 673.05 641 691
L 640 712
Q 641 718.05 647 720
L 660 720
Q 668.95 716.05 671 704 672.05 696.7 666.9 681.65
M 650.5 656.65
Q 651.75 666.8 652.55 670.85 654.45 680.2 658 688 661.4 694.75 662.15 697.65 663.65 703.4 661 708 659.65 710.75 654.9 710.75 650.65 710.75 648 709 652 686 645 665
L 637 652
Q 636.3 649.9 638.9 646.9 641.3 644 643 644 646.8 643.65 648.45 647.1 649.65 649.55 650.5 656.65 Z"/>
</g>
</g>
</g>
</g>

<g id="___5"/>
</svg>
