
<svg xmlns="http://www.w3.org/2000/svg" version="1.1" xmlns:xlink="http://www.w3.org/1999/xlink" preserveAspectRatio="none" x="0px" y="0px" width="394px" height="108px" viewBox="0 0 394 108">
<defs/>

<g id="____1_svg">
<g transform="matrix( 1, 0, 0, 1, 0,92.05) ">
<g>
<g>
<path fill="#000000" stroke="none" d="
M 24.1 15.8
L 24.1 14.8 16 14.8 16 7.9 21.4 7.9 21.4 6.9 16 6.9 16 1.4 24.1 1.4 24.1 0.4 13.5 0.4 13.5 15.8 24.1 15.8
M 43.7 0.4
L 42.5 0.4 42.5 11.6 42.4 11.6 32.4 0.4 30.9 0.4 30.9 15.8 32.1 15.8 32.1 3.65 43.1 16.15 43.7 16.15 43.7 0.4
M 63.7 1.5
L 63.7 0.5 50 0.4 50 1.4 55.6 1.4 55.6 15.8 58.1 15.8 58.1 1.5 63.7 1.5
M 72.45 6.9
L 72.45 1.4 80.55 1.4 80.55 0.4 70 0.4 70 15.8 80.7 15.8 80.7 14.8 72.45 14.8 72.45 7.9 77.95 7.9 77.95 6.9 72.45 6.9
M 98 2.8
Q 97.5 2 97 1.6 96.4 1.1 95.2 0.7 94 0.25 92.8 0.4
L 87.5 0.4 87.5 15.8 90.1 15.8 90.1 8.6 91.9 8.6 97.2 15.8 100.2 15.8 94.6 8.3 96.2 7.8
Q 96.8 7.4 97.3 6.9
L 98.1 5.8
Q 98.4 5 98.4 4.4 98.4 3.5 98 2.8
M 95.3 3.25
Q 95.6 3.7 95.6 4.45 95.6 5.25 95.3 5.85 95 6.5 94.4 6.85 93.8 7.3 93.2 7.45 92.6 7.65 91.5 7.75
L 90.1 7.8 90.1 1.4 92.4 1.4 93.7 1.6 94.7 2.25
Q 95.05 2.55 95.3 3.25
M 110.3 1.45
L 110.3 15.75 112.8 15.75 112.8 1.45 118.3 1.45 118.3 0.45 104.7 0.45 104.7 1.45 110.3 1.45
M 130.8 0.05
L 130.2 0.05 122.7 15.75 123.95 15.75 126.35 10.65 132.95 10.65 135.25 15.75 137.95 15.75 130.8 0.05
M 127 9.65
L 129.8 3.55 132.6 9.65 127 9.65
M 144.1 0.45
L 144.1 15.75 146.6 15.75 146.6 0.5 144.1 0.45
M 165.9 0.45
L 165.9 11.65 155.9 0.45 154.4 0.45 154.4 15.75 155.6 15.75 155.6 3.65 166.4 16.15 167 16.15 167.1 0.45 165.9 0.45
M 192 0.5
L 189.4 0.5 183.55 12.15 183.35 12.15 177.35 0.5 174.75 0.5 174.75 15.8 175.95 15.8 175.95 3.25 176.2 3.25 182.45 15.75 183.05 15.75 189.4 3.15 189.4 15.75 192 15.75 192 0.5
M 207.9 7.85
L 207.9 6.85 202.5 6.85 202.5 1.45 210.5 1.45 210.5 0.45 199.9 0.45 199.9 15.75 210.6 15.75 210.6 14.75 202.5 14.75 202.5 7.85 207.9 7.85
M 230.1 16.15
L 230.1 0.45 229 0.45 229 11.65 228.9 11.65 218.9 0.45 217.4 0.45 217.4 15.75 218.5 15.75 218.5 3.65 218.6 3.65 229.6 16.15 230.1 16.15
M 244.6 15.75
L 244.6 1.5 250.1 1.5 250.1 0.45 236.4 0.45 236.4 1.45 242 1.45 242 15.75 244.6 15.75
M 280.6 4.75
L 281.6 4.1
Q 281.45 3.55 280.6 2.5 279.75 1.7 279 1.3 278.2 0.85 277.1 0.5 276.2 0.2 274.9 0.1 273.65 -0.05 272.4 0.4
L 270.4 1.2
Q 269.1 1.95 268.6 2.5 267.8 3.25 267.3 4.2
L 266.5 6.1 266.3 8.1 266.5 10.2
Q 266.85 11.45 267.3 12.2 267.7 12.95 268.6 13.8 268.75 13.95 270.3 15.1
L 272.3 15.9
Q 273.5 16.2 274.7 16.2 276 16.2 277.1 15.8 278.05 15.55 279.1 15
L 280.5 13.7 281.7 12.15 280.7 11.5 279.8 12.8 278.7 13.9 277.3 14.8
Q 276.5 15.1 275.7 15.1 274.55 15.1 273.2 14.6 272.15 14.05 271.2 13.2 270.15 12.3 269.9 11 269.4 9.85 269.4 8.1 269.4 6.35 269.9 5.2 270.35 4 271.2 3 272.25 2.05 273.2 1.7 274.35 1.2 275.7 1.2
L 275.7 1.15
Q 277.1 1.15 278.4 2.1 279.5 2.8 280.6 4.75
M 295 0
L 294.4 0 287 15.7 288.3 15.7 290.6 10.6 297.3 10.6 299.6 15.7 302.2 15.7 295 0
M 294 3.5
L 296.8 9.6 291.1 9.6 294 3.5
M 318.8 4.8
L 318.3 2.8
Q 317.75 1.95 317.1 1.5 316.4 1 315.3 0.7 314.2 0.4 313 0.4
L 308.2 0.4 308.2 15.7 310.7 15.7 310.7 8.6 312.9 8.9 313.7 8.9
Q 314.55 8.9 315.6 8.6 316.55 8.3 317.2 7.9 317.85 7.4 318.4 6.6 318.95 5.75 318.8 4.8
M 315 2.4
Q 315.45 2.85 315.7 3.5 316 4.1 316 4.9
L 315.8 6.1
Q 315.55 6.8 315.2 7.1 314.7 7.6 314.2 7.8 313.6 8.1 312.7 8.1
L 310.7 7.8 310.7 1.5 312.6 1.5
Q 313.4 1.5 313.9 1.8 314.55 1.95 315 2.4
M 327.6 0.4
L 325 0.4 325 15.7 327.6 15.7 327.6 0.4
M 347.6 1.5
L 347.6 0.5 333.9 0.4 333.9 1.4 339.5 1.4 339.5 15.7 342.1 15.7 342.1 1.5 347.6 1.5
M 364.7 15.8
L 367.4 15.8 360.1 0.1 359.5 0.1 352.1 15.8 353.4 15.8 355.8 10.7 362.4 10.7 364.7 15.8
M 359.1 3.6
L 361.9 9.7 356.3 9.7 359.1 3.6
M 373.3 15.8
L 383.6 15.8 383.6 14.8 375.9 14.8 375.9 0.4 373.3 0.4 373.3 15.8 Z"/>
</g>
</g>
</g>

<g transform="matrix( 1, 0, 0, 1, 0,-30.75) ">
<g>
<g>
<path fill="#000000" stroke="none" d="
M 54 83.15
L 53.7 83.15 53.4 83.5
Q 53.4 84.5 54.4 84.5 54.7 84.5 55.8 86.15 57 88.3 57.4 88.3 60.45 91.65 60.9 91.65 61.05 93.05 62.9 94.35 63.2 95.8 65.6 97.75 65.6 99.15 67 99.15
L 67.6 99.15
Q 69.6 99.15 70.4 94.35
L 70.4 94.05 69.7 92.35
Q 69.7 91.75 68 89.35 66.1 86.7 62.2 84.45 59.5 84.15 59.5 83.85 54.65 83.85 54 83.15
M 38.7 57.4
L 38.4 57.7 38.4 58
Q 38.4 58.35 39 59.4
L 39 60.4
Q 39.7 61.8 39.7 63.4
L 39.7 65.5
Q 39.7 65.8 40.1 65.8
L 40.1 68.5 40.7 69.2 40.4 69.9
Q 41.1 73 42.8 73
L 44.5 71.6 44.1 70.6 44.1 70.2
Q 44.8 70.2 44.8 69.9 47.9 68.55 48.6 67.9 51.283984375 67.303515625 51.3 66.5
L 51.3 66.8
Q 53.7 65.9 53.7 65.1
L 54.7 65.5
Q 56.85 64.2 58.8 63.8
L 59.8 63.8
Q 59.5 64.5 58.8 64.8
L 58.8 65.5
Q 58.8 66.1 58.1 67.9
L 58.1 68.9 57.8 68.9 56.1 73
Q 54.7 71.6 53.7 71.6 51.95 70.2 51.3 70.2
L 49.9 68.9 49.6 68.9 47.9 70.2 47.9 70.6 48.6 71.3 48.6 74.7
Q 48.6 75.95 44.1 76.7
L 43.5 76.7 43.1 77.1 41.1 77.4
Q 36 78.1 36 78.4 33.6 78.4 33.6 79.1
L 31.6 79.1
Q 30.6 79.1 30.6 79.4 32.85 81.75 35.3 83.9
L 35.7 83.9 36 83.5
Q 39.8 81.75 39.8 81.5 44.8 80.45 44.8 79.5 45.9 79.5 47.6 78.8
L 47.9 78.8
Q 47.9 80.05 47.3 80.8
L 47.3 81.8 46.6 83.9 43.5 90
Q 41.2 93.9 38.1 97.1 35.7 98.9 35.7 99.2
L 34.7 99.2 35 99.5 35.7 99.5
Q 36 99.5 36 99.2
L 36.4 99.2
Q 36.95 99.2 38.1 98.2 42.5 95.75 42.5 95.1
L 44.9 93.1
Q 46.9 91.55 46.9 90.7 48.7 90.25 50.7 85.2 51.95 84.2 52.4 82.8
L 52 82.2 52.7 81.2
Q 53.65 80.4 54.1 77.7 54.1 76.35 58.8 75.7 60.6 75.7 61.2 74.3
L 61.6 74.7 65 74.3 66 74.7 66.6 74.7 67.3 74.3
Q 67.95 74.7 69 74.7
L 72.4 74.7 74.8 75 75.1 74.7
Q 75.8 75.4 77.2 75.7 78.9 75.7 79.2 73.3 79.2 72.6 78.2 71.3
L 73.4 69.9 73.1 70.2 72.4 69.9
Q 71.95 69.9 71 70.9
L 70 70.9
Q 68.85 70.9 66.6 71.6
L 65.2 71.6
Q 64.25 72.3 62.9 72.3
L 62.5 72.3 61.2 73 60.5 73 57.5 73.3 57.5 73 63.9 66.8
Q 68.25 65.15 69 62.8
L 68.3 61.4
Q 65.8 60.65 63.3 58.7
L 62.9 58.7
Q 59.8 61.35 56.1 62.1
L 54.7 62.4
Q 53.95 62.4 53.3 63.4
L 53 63.4 53 63.1
Q 52 63.4 52 63.8
L 48.6 64.8
Q 45.9 65.8 45.9 66.5
L 44.9 66.2 44.5 66.2 44.5 63.8
Q 44.5 63.15 44.8 62.4
L 44.8 60.7
Q 44.8 60.4 42.4 59.4
L 38.7 57.4
M 29.9 46.1
Q 26.15 44.45 24.1 42.1
L 23.4 42.1
Q 22.05 42.1 21.4 44.4
L 22.1 45.4
Q 23.1 45.4 23.1 49.1
L 23.4 50.5 23.4 50.9 23.1 51.5
Q 23.1 52.9 22.7 52.9 22.1 56.8 21.7 57.3 20.85 62.1 20 65.1 19 66.8 19 68.2 17 68.2 17 68.9 16 68.9 16 69.2
L 15.2 68.9
Q 12.8 68.9 5.4 70.9
L 4.7 70.9
Q 4.7 71.6 1 71.6
L 0 71.6 0 72.3
Q 5.75 77.8 7.4 78.1 8.75 76.7 9.1 76.7 10.3 75.7 11.1 75.7 13.85 73.7 14.9 73.7 16.5 72.3 17.7 72.3 17.7 73 17.3 73 17.3 74.7 17 74.7 16.25 77.4 15.2 77.4 14.2 77.4 13.6 78.8
L 13.6 79.1
Q 15.3 81.1 17.3 81.1
L 21.7 83.9 21.7 84.5 21.1 85.2
Q 21.1 86.2 20 86.2 19.7 87.3 19 87.3 18.4 88.6 17.7 88.6 16.55 90 15.6 90 13.95 91.95 11.5 93.4 7.4 95.5 7.4 95.8 3.7 96.3 3.7 96.8
L 4 97.5
Q 6 97.5 6 96.8 8.1 96.5 8.1 96.1 9.4 96.1 10.5 95.1
L 12.2 94.4
Q 14 93.9 15.2 93.1 16.9 92.3 19.7 90.3 21.7 89.6 24.8 86.3
L 25.5 86.6
Q 26.8 88.95 28.5 90 30.75 92.9 32.3 93.65 32.9 95.35 35 95.35 37.4 94.4 37.4 92
L 37.4 91.65 37.1 91.65
Q 36 88.3 33.3 86.15 29.15 82.15 27.5 82.15
L 28.5 81.15
Q 29.25 79.3 30.5 77.65 30.95 76.35 31.3 76.35
L 32.3 74
Q 33 73.2 33 72.6 34 71.5 34 70.6 34 69.85 35.7 68.2 37.4 66.8 37.4 65.5
L 37.4 64.1
Q 36.4 63.4 36.4 63.1
L 31.6 60.1 29.9 61.4
Q 29.9 62.55 30.6 63.1
L 30.6 64.5
Q 30.6 65.9 25.1 66.5
L 24.5 66.5 24.5 66.2 24.8 65.5
Q 25.8 62.8 26.2 62.8 26.2 61.7 26.8 60.4 26.8 58.4 27.5 58.4 28.85 54.6 29.5 54.6 30.45 52.9 31.3 52.9
L 32.6 49.9
Q 32.3 47.5 31.3 46.8 29.9 46.5 29.9 46.1
M 24.5 68.5
Q 27.05 67.75 28.9 66.8
L 29.9 66.8
Q 29.15 68.9 28.9 68.9 28.9 71.2 25.5 77.4
L 25.8 78.1 25.8 78.4 25.5 78.4
Q 24.75 78.4 24.1 79.8 22.5 79.5 21.4 78.8 19.4 78.35 19.4 77.8 21.7 74.1 23.1 69.2 24.5 69.2 24.5 68.5
M 43.5 42.65
L 42.8 42.95 42.8 43.35 43.5 43.95 43.5 45.35 44.1 46.05
Q 44.1 48.15 45.2 48.75 45.5 51.55 45.9 52.15
L 45.9 52.55
Q 45.9 53.15 46.2 53.15
L 46.2 54.55 46.9 54.85
Q 46.9 56.55 47.2 56.55 47.2 58.45 48.9 60.35 49.25 60.35 50.6 59.35
L 50.6 57.35 51.6 57.65 52.7 56.65
Q 57.4 55.9 57.4 55.25
L 59.5 55.25 59.8 54.85 62.2 54.85 63.6 53.85
Q 63.6 52.9 61.9 51.45 62.5 50.25 64.6 48.45 64.6 47.1 66.3 46.05 67.25 46.05 68 43.35 68 40.95 65 40.35 62.6 38.85 61.5 38.85 58.8 40 58.8 40.55 57.4 41 57.4 41.25 53.65 43 52.7 43.65
L 50.3 44.65 48.9 44.65
Q 47.6 44.65 47.6 43.95 46.2 43.95 46.2 43.65 44.5 43.3 44.2 42.65
L 43.5 42.65
M 53 46.35
L 53.4 46.75 54.7 45.65
Q 56.7 45.35 56.7 45.05 58.2 45.05 58.2 45.35
L 58.2 46.75
Q 57.4 46.75 57.4 47.1
L 57.4 47.4 57.8 47.8 57.1 50.5
Q 56.8 52.85 55.4 52.85 52.55 53.9 52 54.25
L 51.3 54.25 51.3 50.45 52 49.45 52 48.45 51.3 47.75
Q 51.3 47.1 53 46.35
M 132 82.25
Q 132 82.65 132.7 82.65 135.05 83.7 135.8 84.65
L 137.8 86.65
Q 138.9 87.5 138.9 88.05 140.85 89.45 142.3 91.85 143.6 94.85 145.7 94.85 148.05 94.85 148.8 90.45
L 148.8 89.75
Q 148.8 87.35 145.8 84.35 145 84.35 141.3 81.95 137.5 81.3 137.2 80.55
L 136.8 80.55
Q 132 81.6 132 82.25
M 97.3 95.5
L 97.7 95.6
Q 100.75 96.45 103.7 93.2
L 106.2 90.2 106.9 87.6
Q 108.1 83.4 107.5 81.2
L 107.5 81.15
Q 107.25 81.15 105.7 83.15 103.55 85 102.9 86 102.4 86.15 100.2 88.1 97.85 89.1 96.9 92.5
L 96.7 93.3
Q 97 95 97.3 95.5
M 126 34.55
Q 125 35.85 125 36.25
L 119.8 41.05
Q 117.1 42.4 115 44.05
L 113 45.85
Q 110.6 46.9 110.6 47.15 108.9 47.9 108.6 48.85 106.5 49.9 106.5 50.25
L 102.8 52.05 101.3 51.85
Q 99.8 52.45 98.9 54.35 99.35 56.15 99.7 56.15 100.25 56.65 101.4 59.45 100.95 62.15 101.6 62.95
L 101.2 63.25 101.5 63.95 101.1 64.65 100.7 67.65 100.3 67.95 100.5 68.95
Q 99.9 69.65 99.6 69.75
L 99.1 69.85
Q 96.3 69.55 95.6 72.55 95.6 74.25 96.6 75.75
L 96.4 76.75
Q 96.25 77.8 98.2 79.05
L 98.5 79.05
Q 99.7 77.85 100 77.95 101.1 76.8 103.8 75.35 107.05 74.7 108.5 73.85 109.75 74 112.1 72.85 116.4 72.1 116.4 71.75
L 117.7 71.95 121.4 71.25 121.4 71.75
Q 120.9 72.2 120.9 76.75
L 121.1 82.65 120.7 83.05 121.1 84.75 120.7 85.45 121.1 85.45 120.7 87.15 121.1 89.15 120.7 90.55 120.7 95.05
Q 120.7 96.05 120.4 96.05
L 120.7 96.75 120.1 97.45 120.1 99.45
Q 118.4 99.45 113.9 97.05
L 113.2 97.05 112.9 97.45 113.2 98.05
Q 114.1 98.05 115.6 99.45 119.7 103.65 119.7 105.65
L 119.4 106.25 119.4 107.25
Q 119.4 108.1 120.1 108.25
L 120.7 108.25
Q 122.55 106.25 122.8 106.25 127.2 101.85 127.2 98.05
L 127.2 97.75 126.9 96.35 127.2 95.35 127.2 94.65 127.6 89.85 127.2 84.05 126.9 82.65 127.2 80.35 126.9 79.25 127.2 78.55 126.9 77.55
Q 126.9 74.8 127.2 73.45 126.65 73.45 127.1 69.45
L 130.1 68.85 130.3 69.15 131.4 68.95 131.9 68.95 133 69.25 133.8 68.75 140.1 69.15 140.4 69.15 141.2 69.45 142.3 69.25 143.9 69.85 144.2 69.85
Q 146.4 69.85 146.9 70.15
L 148.8 70.15
Q 150.7 70.1 150.7 68.65
L 150.7 67.55
Q 149.9 66.15 148.4 65.55
L 146.2 64.55 146.3 64.15 144.6 63.75 143.6 63.05 142.6 63.35
Q 138.85 62.7 138.8 63.55 136.75 63.7 136.7 63.95
L 135.7 63.85
Q 131.7 64.35 130.4 64.85 128.2 64.85 127.4 65.55 127.45 63.8 127.3 62.55
L 128.7 56.35 128.3 55.05 128.7 54.35
Q 128.7 53.75 128 52.95 123.3 52 120.1 49.85
L 119.8 49.85
Q 118.7 50.9 118.7 51.55 118.7 52.3 120.1 52.95
L 120.8 57.75 120.6 62.15
Q 120.6 64.15 121.1 64.15
L 121.5 66.25 121.5 66.45 120.6 66.45 119.3 66.95 119.3 66.65 116.3 67.15
Q 115 67.15 111.6 67.85
L 110.8 67.55 110.5 67.75
Q 108 68.05 108 68.25 106.6 68.25 105.4 68.55 106 67.65 106.2 67.65 106.85 64.7 107.7 63.65 108 61.95 109.1 60.85
L 109.5 58.15 109.2 57.75
Q 109.3 57.1 107.1 55.35 106.15 55.3 103.7 52.85
L 104.1 52.65
Q 105.5 52.25 105.5 51.95 108.5 51 108.5 50.65 109.9 50.65 110.2 49.55 111.6 49.55 111.9 49.25 114.3 48.95 114.3 48.55 116.7 47.6 117.8 46.55
L 119.1 46.55
Q 120.1 45.85 120.8 45.85
L 122.5 45.85 122.9 45.45 124.9 44.75 126 45.15 126.3 45.15 127.3 44.75 128.7 44.75 131.8 45.45 133.1 45.45 134.9 45.15
Q 136.5 43.05 136.9 43.05
L 138.3 40.35 138.3 39.95
Q 136.3 38.05 136.3 37.65 132.5 36 132.5 34.55 131.8 34.55 131.5 32.15 131.5 31.473046875 130.05 31.05 129.505078125 30.879296875 128.7 30.75
L 127 31.45 126.7 31.45
Q 124.15 32.2 123.9 32.45
L 123.9 33.45 124.3 33.45
Q 126 33.9 126 34.15
L 126 34.55
M 195.35 72.05
Q 193.8 72.05 192.95 73.05
L 193 73.85
Q 193 74.05 193.5 74.05
L 193.5 75.05
Q 193 75.05 193 76.45 193 76.65 193.5 76.65
L 193.5 77.45 193 77.95 193 78.25 193.2 78.45
Q 193 79.05 193.2 82.05 193.35 84.8 193.2 84.85 192.9 86.45 192.4 86.45 191.35 90.05 190.5 90.05
L 190.8 90.55
Q 190.3 92.35 189.7 92.35 188.7 94.2 186.4 96.5 186.4 97.5 180.1 102.65
L 178.5 103.65
Q 177.55 104.1 176.3 105.3 175.5 105.3 175.5 105.5 173.6 105.95 173.6 106.3
L 173.6 106.8 173.9 106.8 176.1 106
Q 179.9 104.35 180.1 104 181.8 103.15 182.3 102.65 183.6 102 185.6 100.55 187.25 99.5 190 96.75 192.3 94.25 194.3 91.55 194.45 90.05 195.4 90.05
L 195.9 90.55 195.9 90.85 195.7 90.85
Q 197.4 92.95 197.4 93.35 198.4 94.45 198.4 94.65 199.15 96 200.1 96
L 200.1 96.5
Q 200.1 96.8 200.9 97
L 201.4 98
Q 205 101.65 205.5 101.65 206.05 102.35 206.6 102.35 210.4 105.4 210.4 105.75 211.5 106 213.2 107.55
L 213.4 107.55
Q 214.65 107.55 216.4 106.45
L 217.8 106.45
Q 218.1 105.7 221.8 105.25
L 222.7 105.45 223 105.45 223.8 105.25 224.1 105.45 224.3 104.95 223.8 104.45 222.7 104.45
Q 222.2 104.45 222.2 104.15 219.35 103.15 218.05 102.15 217.45 102.15 216.95 101.35 216.2 101.35 216.2 101.05
L 213.7 99.85
Q 210.45 98.05 206.9 95.65 205.5 94.4 204.7 94.15 200.65 90.55 199.8 90.25
L 198.2 88.05
Q 197.1 86.95 197.4 86.95 197.55 86.6 197.7 83.35 197.8 80.1 198.2 79.25
L 200.05 75.15 200.05 74.65
Q 199 73.05 197.35 73.05 196.55 72.5 195.35 72.05
M 192.1 65.15
L 190.3 65.15 186.9 66.45 186.6 66.45 184.6 65.45 184.2 65.75 184.2 66.05
Q 185.9 69.35 185.9 71.55
L 185.9 72.85 186.2 73.75 185.9 75.05 185.9 80.55 186.6 82.45 186.6 82.75 185.9 83.45 186.2 84.75 185.9 85.35 185.9 89.55 186.9 90.15 187.6 90.15
Q 188.2 89.2 189.1 88.8
L 190.9 84.2 190.9 84.1 190 83.8 190.3 83.5 190 82.15 190.3 81.85 190 80.85 190 79.85 189.6 76.65 190 76.35 189.3 71.25 190 68.95 189.6 68.35
Q 190.6 68.05 190.6 67.65 192.3 67.65 192.3 67.05 193.65 67.05 194.7 66.45
L 196.4 66.45 200.2 65.15 202.9 65.15 203.2 65.45 202.9 65.75 202.9 68.35 203.2 69.25 202.9 69.65 203.2 70.55 202.9 72.15 202.9 74.75 203.2 75.75 202.9 78.25 203.2 79.55 202.6 81.15 202.6 81.45 202.9 82.15 203.2 85.65 203.6 86.95
Q 203.2 86.95 203.2 87.55
L 203.9 88.25 203.6 88.25 204.2 91.15 208.3 92.05
Q 209 90.15 209.7 90.15 210.4 86.1 210.4 82.45
L 210.4 78.65 210 77.95 210.4 76.65 210.4 68.35 210.7 66.05
Q 211.7 63.9 211.7 62.85 210.65 61.25 210 61.25 206.6 60.6 205.6 59.05 204.55 59.05 202.9 60.95
L 200.2 62.25 197.8 62.85
Q 197.4 63.25 195.1 63.85
L 194.7 63.85 193.1 64.45 193.1 64.15 192.1 65.15
M 182.7 60.25
Q 184.3 59.25 184.8 58.55 188.5 56.75 188.5 54.75
L 187.8 54.05
Q 187 54.05 182.4 56.05
L 180.7 56.85
Q 175.9 58.9 175.6 59.15 173.9 59.6 173.9 59.85 168.4 61.25 168.4 61.55
L 168.4 61.95 169.4 62.95
Q 171.5 63.7 171.5 63.95 173.65 64.7 174.5 65.35
L 175.9 65.35 176.9 64.25
Q 178.9 63.25 179.6 62.25 180.7 62.25 180.7 61.55 182.7 60.55 182.7 60.25
M 200.6 48.95
L 200 48.95 198.6 50.35 198.6 50.65 198.9 51.65 198.3 53.5
Q 196.3 55.05 196.3 55.8 194.5 58.15 193.8 58.15 193.8 59.15 193.5 59.15
L 188.1 63.65
Q 186.7 64.25 186.7 64.65
L 186.7 64.95 190.8 63.25
Q 192.5 62.05 196.2 59.85
L 200.3 57.15
Q 202.35 56.5 203.7 55.15 204 55.8 204.7 55.8 211.5 57.75 211.5 58.15
L 214.6 58.85
Q 221.75 60.55 222.8 60.55
L 224.8 60.55
Q 226.1 60.55 226.9 58.15 226.45 56.1 224.2 54.05
L 222.1 53.75 214.6 53.75 213.6 54.05 212.9 53.75 211.9 54.45 211.6 54.05 210.9 54.05 206.8 54.45 206.4 54.05 205.1 54.75 204.7 54.75
Q 204.7 54.15 205.4 53.45
L 205.4 53.05
Q 205.4 52.05 205.1 52.05 205.1 51.8 203.1 50.65
L 201 49.65
Q 201 48.95 200.6 48.95
M 177.7 45.25
Q 173.2 45.7 173.2 46.25 175 48.95 176.6 48.95 176.6 50 178.6 50.65
L 179 50.65 179.7 50.05
Q 181 50.05 181 49.65 182.7 49.25 182.7 48.95 183.65 48.95 184.1 47.95
L 184.8 48.25
Q 185.8 47.95 185.8 47.65 190.2 46.6 190.2 45.95
L 190.2 44.55
Q 189.45 42.85 188.5 42.85
L 187.5 42.85 177.7 45.25
M 206.2 34.05
L 204.2 33.35
Q 202.75 32.35 202.2 32.35
L 202.2 31.95 201.4 31.95 200.1 32.95 201.4 34.35 201.1 34.65 201.1 35.35
Q 200.35 36.1 199.7 38.75 199 39.05 199 40.45
L 197.7 42.85
Q 196.7 43.85 196.7 44.25
L 194.7 46.25 192.6 48.95
Q 191.6 49.95 191.6 50.35 189.6 51.75 189.6 52.05
L 189.9 52.35 190.2 52.05
Q 192.5 51.75 195.3 48.65 195.9 48.05 197.7 46.95 199.4 45.95 199.4 45.55 199.4 45.15 200.7 44.55
L 201.8 45.25 204.1 45.95 209.9 43.85 209.9 44.25
Q 208.25 47.8 206.9 50.05
L 206.9 50.65 208.6 49.35
Q 210.55 46.95 211.3 46.95
L 213 46.25
Q 213 45.65 216.7 44.85 219.1 44.85 220.8 42.55
L 220.8 40.85
Q 218.8 38.45 217.8 38.45 217.05 38.45 215.4 36.35
L 214 38.05
Q 211.95 38.8 211.3 39.75 209.3 40.5 209.3 40.75 207.9 41.2 207.9 41.45
L 206.2 41.85
Q 204.2 42.15 203.2 42.85
L 202.4 42.85 202.4 42.55
Q 202.75 42.55 203.8 41.85 206.9 39.9 206.9 39.45 208.9 38.45 208.9 36.75
L 208.9 36.35
Q 208.9 34.75 207.2 33.65
L 206.9 33.65 206.2 34.05
M 270.05 34.2
Q 266.65 34.9 266.65 36.2
L 267.05 37.2
Q 268.35 37.2 268.35 39.7
L 268.35 40.7 268.75 41 268.35 41.7 269.05 43.4 268.75 44.8 269.05 46.8 268.75 47.8 269.05 48.5 268.75 49.9 269.05 50.6 268.35 53.3 261.55 56 260.55 56 260.25 56.3
Q 257.85 56.7 257.85 57 255.45 57.4 255.45 57.65 253.05 57.65 253.05 58.35 250.8 58.35 250.35 59.05
L 250.65 59.65
Q 253.65 61.35 255.75 63.15 256.75 64.4 258.15 65.15
L 258.55 64.5
Q 260.15 63.8 260.55 63.5 262.25 63.05 262.25 62.5 262.5 62.5 266.25 60.35
L 266.65 60.65
Q 265.95 60.65 265.35 62.35 264.65 63.15 264.65 63.75 263.95 64.25 262.25 67.15 261.6 69.15 261.25 69.15 259.4 72.05 257.45 73.65 257.15 75 256.45 75.35 254.55 77.9 253.35 78.75
L 251.05 82.15 246.25 86.55
Q 242.85 89.8 234.65 94.35
L 234.65 94.75 235.05 95.05 235.65 95.05
Q 236.45 94.35 237.05 94.35
L 243.55 90.65 254.05 82.75
Q 259.9 76.75 260.25 76.75 263.85 72.55 264.25 72.55 265.35 70.2 268.35 67.85
L 268.35 71.55
Q 268.35 76.1 268.05 77.35
L 268.35 77.65
Q 268.35 79.2 267.65 80.45
L 265.95 81.05
Q 263.85 81.5 263.65 81.75 259.15 82.5 259.15 82.75
L 259.15 83.15 262.15 84.85 264.25 86.85 264.65 86.85
Q 267.5 86.2 268.35 85.55
L 268.35 98.75
Q 268.35 99.55 269.05 100.85 269.05 104.55 270.05 104.55
L 272.05 102.55
Q 274.85 98.85 274.85 95.35
L 274.85 90.95
Q 274.85 89.55 274.45 89.55
L 274.45 86.85 274.85 84.5 274.85 83.85
Q 274.85 83.5 277.85 82.15
L 278.85 82.5 279.25 82.5
Q 281.95 82.5 282.65 80.8
L 282.65 80.5 282.35 80.1
Q 282.35 78.8 281.95 78.8
L 281.65 78.8 280.65 79.1
Q 279.8 78.5 278.25 78.1 276.25 78.1 275.55 78.8 274.45 78.8 274.45 78.4
L 274.45 67.5
Q 274.9 67.5 276.45 69.9 281.65 74.35 281.65 75 283.6 77.3 288.15 80.5 294.65 86.35 296.95 86.9
L 297.65 86.9 298.65 87.3
Q 300.65 86.55 300.65 85.6 302.45 85.15 303.05 84.2 306.35 83.7 309.55 82.8
L 312.25 82.8 312.65 82.5 312.65 82.2
Q 307.85 81.9 307.85 81.2 302.45 79.5 299.35 77.7 298.05 77.7 292.15 73.7 289.45 72.25 285.35 69.2
L 278.55 63.8
Q 275.55 60.8 274.45 60.8
L 274.45 57.7
Q 275.2 56.3 277.55 56
L 277.55 55.6
Q 283.8 52.9 286.75 52.9 288.15 52.9 288.75 50.6 288.75 49.8 288.15 49.1 287.15 48.1 283.35 48.1 278.6 49.15 277.85 50.2 276.1 50.2 275.55 50.9 274.45 50.9 274.45 50.2
L 274.45 49.2
Q 274.45 48.6 274.85 48.2
L 274.85 47.8
Q 274.45 47.8 274.45 47.2
L 274.85 46.1 274.85 45.7
Q 274.85 45.4 274.45 45.4
L 275.2 43.7 274.9 42.3 274.9 42
Q 276.6 39.9 276.6 39.3
L 276.45 39.3
Q 276.45 37.6 275.85 36.6 270.45 35.55 270.45 34.2
L 270.05 34.2
M 340.9 61.5
L 340.4 61.65
Q 339 62.4 336.9 63.15
L 336.5 63.15 336.3 63.3 335.8 63.6 335.7 63.6
Q 334.1 63.95 334 64.2
L 333.6 64.2
Q 332.4 64.3 332.3 64.9
L 332.1 64.6 331.5 64.8 325.4 66.3
Q 323.4 66.6 323.3 66.9
L 323.25 67 323.15 66.85 322.65 66.85
Q 322.2 66.85 321.65 68.65 321.95 69.2 321.95 69.5 322.5 70.1 322.35 70.85
L 322.75 72.75
Q 322.6 74 322.85 74.65 323.1 74.65 323.15 74.05
L 323.45 74.15 323.95 73.65 325.85 72.05
Q 326.7 71.75 326.85 71.25 328.1 71.15 328.15 70.65
L 329.55 69.65 329.75 70.05
Q 330.05 69.75 330.35 69.85
L 331.05 69.35
Q 332.15 68.95 332.65 68.95
L 333.65 68.55 333.95 68.55 335.15 68.15 335.55 68.15 335.65 68.45 335.65 68.85 335.95 68.95 335.85 69.55
Q 336.05 69.55 336.35 69.85
L 336.25 70.5 336.45 70.65
Q 335.95 72.25 336.25 74
L 336.35 76.3 336.15 78.3 336.25 78.9 335.95 80.4
Q 336.15 81.55 335.85 83
L 335.55 84.2 335.45 85.2 335.75 85.5 335.05 87.7
Q 334.55 87.85 334.55 89.7 334.05 90.05 334.05 91.4
L 332.7 94.15 332.25 94.85 332.35 95.35
Q 332 95.35 333.75 96.15
L 333.85 96.35 335.05 97.05 334.95 98.45 335.05 98.75 338.15 99.05 338.35 99.05
Q 339.4 98.9 339.75 98.25
L 342.45 97.05 343.25 96.55 343.2 96.35
Q 343 95.7 346.95 91.35
L 349.9 88.35 350.8 86.35
Q 351.45 85.15 352.9 83.75 353.35 83.2 351.9 83.75
L 350.2 84.55
Q 346.1 88.25 343.2 89.55
L 340.1 91.65 340.5 82.3 340.2 82
Q 340.8 81.85 340.7 79.8
L 340.6 79.6 340.6 79.2
Q 340.75 79 340.9 76.5
L 340.9 76.3 341.2 74.7 341.1 74.5
Q 341.5 70.95 342 68.7
L 342 68.6
Q 342.6 67.65 343 66.8
L 343 66.3
Q 343.3 65 342.7 63.8 342.15 63.8 342 63.15
L 341.9 63.15
Q 341.6 63.15 341.7 62.85 340.65 62.2 340.9 61.5
M 364.05 66.7
Q 364.05 66.2 362.05 64.7 359.7 64.7 359.35 64.2
L 358.45 64.2
Q 357.95 64.2 357.1 63.35
L 357 63.35
Q 355.4 64.45 355.4 65.55 355.4 66.95 355.9 66.95 357 68.5 357 70.55
L 356.8 70.75 357.2 73.75 357 74.15 357.2 77.25 357 77.75 357 80.75
Q 357 82.3 357.2 83.35
L 357.2 83.65
Q 357.2 84.85 357 85.85
L 357 86.15 357.7 91.95
Q 358.7 94 360 94.95 361.3 97 362.7 97.65 364 97.9 364 98.05 366.6 98.75 369 98.75
L 370.1 98.75
Q 370.7 98.75 371.3 98.95
L 375.8 98.95 380.1 98.05 381 98.05
Q 381 97.85 381.7 97.85
L 381.7 97.65
Q 383.2 97 383.2 96.75 383.85 96.75 384.6 94.95
L 384.6 94.25 384.1 93.75
Q 382.75 92.45 382.3 92.45
L 381.7 91.95 381.7 91.55
Q 381.7 91.4 381.2 91.05 380.95 88.85 380.5 88.85 380.25 88.85 380.1 89.25
L 380.1 90.35
Q 380.1 90.9 379.8 91.05
L 379.8 91.55 379.4 91.75
Q 379.2 92.85 378.9 92.85
L 378.5 92.65 376.9 93.15 376.7 93.15 375.8 93.35 374.9 93.35 374.4 93.75 374.2 93.35 372.4 93.55
Q 372.2 93.55 372.2 93.75
L 370.8 93.55 368.8 93.55 368.1 93.35 367.9 93.35 367.9 93.55 367.2 93.35 365.6 93.35
Q 363.8 93.35 363.8 93.15 362 92.35 362 91.8 361.5 91.35 361.5 90.65 361.1 89.9 361.1 87.3
L 361.3 86.8 360.6 84.6 360.9 84.1 360.9 83.2
Q 360.9 81.6 361.8 80.7 363.55 79.9 365.2 78.7 367.25 77.9 369.7 76.2 371.45 74.8 371.7 74.8
L 374.7 73.5 375.3 73.5
Q 376.45 72.5 376.9 71.5
L 376.9 70.6
Q 375.8 69.85 375.8 69.4 375.3 69.4 374.9 68.7
L 374.6 68.7
Q 373.5 68.5 372.8 67.7 372.6 66.7 372.4 66.7
L 370.7 66.7
Q 369.25 67.7 369.25 68.1
L 369.55 68.5 369.55 69.2
Q 369.55 69.75 369.05 70.3 367.25 73 367.05 73 364.2 76.7 362.05 77.6 362.05 78.2 361.65 78.2
L 361.35 78 361.65 77.3 361.35 77.1 361.65 77.1 361.35 76 361.85 74.4 361.85 73.5 362.75 70.3
Q 364.05 67.5 364.05 66.7
M 330 43.8
Q 326.9 44.15 326.9 44.5
L 326.9 44.8 331.6 48.6
Q 333.15 50.3 333.5 50.3 336.95 54.3 338.5 54.3
L 338.9 54.3
Q 341.25 54.3 342.4 53 343.9 51.9 343.9 51.3
L 343.9 50.6
Q 343.9 48.6 342.8 47.2 341.9 45.8 340.1 45.2 338.5 45.2 338.5 44.5 335.15 43.8 330 43.8
M 368.45 44.2
Q 370.85 41.2 370.85 40.8
L 370.85 40.5 369.15 38.8
Q 367 38.05 364.75 36.4 361.35 37.75 361.35 38.8 362.05 39.45 362.05 40.1
L 362.05 40.8 361.65 42.2 362.05 42.2 362.05 42.5
Q 361.35 42.5 361.05 44.2
L 358.65 48
Q 356.95 51.1 356.95 51.4 352 59.5 350.75 60.6
L 350.8 60.6
Q 349.95 62 349.5 62.6
L 346.1 66.4 346.1 67 347.4 66.7
Q 352.45 62.3 352.45 61.6
L 356.25 58.2
Q 356.25 57.5 356.95 57.5
L 362.75 51.4
Q 363.75 49 365.05 48
L 365.45 48
Q 368.25 51.4 368.45 51.4 371.65 55.8 372.55 55.8 373 56.8 373.55 56.8 374.3 57.8 374.55 57.8
L 377.35 60.2
Q 379.4 62.6 379.75 62.6
L 383.45 65.6 385.45 65.6
Q 387.8 64 388.25 64 388.95 64 388.95 63.3 389.8 63.3 393.7 61.9 394.7 61.9 394.7 61.6
L 394.7 60.9 394.1 60.6 393.7 60.9
Q 391.4 59.2 390.7 59.2
L 390.25 59.2 389.95 59.5 389.25 58.2 388.55 58.2
Q 387.6 58.2 385.55 56.1 384.6 56.1 381.05 54.1 378.1 52.4 375.25 50 373.65 50 371.85 47.6 368.45 45.55 368.45 44.9
L 368.45 44.2 Z"/>
</g>
</g>
</g>
</g>

<g id="___5"/>
</svg>
